PathFileType	4	(X/Y/Z)	C:/Users/beibeiliu/ov580/test_trc/User1\sequence.17_training_dense_right.trc
DataRate	CameraRate	NumFrames	NumMarkers	Units	OrigDataRate	OrigDataStartFrame	OrigNumFrames
120	120	18	19	mm	120	37	292
Frame#	Time	ThumbCMC			ThumbMCP			ThumbIP			ThumbTip			IndexMCP			IndexPIP			IndexTip			MiddleMCP			MiddlePIP			MiddleTip			RingMCP			RingPIP			RingTip			PinkyMCP			PinkyPIP			PinkyTip			BackHand1			BackHand2			BackHand3	
		X0	Y0	Z0	X1	Y1	Z1	X2	Y2	Z2	X3	Y3	Z3	X4	Y4	Z4	X5	Y5	Z5	X6	Y6	Z6	X7	Y7	Z7	X8	Y8	Z8	X9	Y9	Z9	X10	Y10	Z10	X11	Y11	Z11	X12	Y12	Z12	X13	Y13	Z13	X14	Y14	Z14	X15	Y15	Z15	X16	Y16	Z16	X17	Y17	Z17	X18	Y18	Z18	
36	0.3	143.201	38.8855	62.6663	118.525	33.8912	51.1948	94.5767	42.919	34.761	76.8248	46.111	32.1777	159.675	44.5812	-24.1125	157.173	43.9931	-47.5266	163.915	39.8674	-71.3158	165.866	10.2008	-27.9698	154.048	-19.315	-19.0536	150.61	-11.8731	21.813	184.965	-6.55353	-14.5495	165.464	-29.8105	4.55355	166.042	-15.8245	34.7153	204.815	-14.3591	-2.37958	180.718	-30.3765	14.3768	174.302	-11.1927	35.1375	205.561	33.2898	29.3333	209.113	37.2982	61.9728	178.176	49.008	50.4675	
37	0.308333	147.208	39.0518	66.5568	119.639	39.2313	52.8467	96.9924	49.2627	35.4286	79.7279	54.0263	31.4805	161.812	44.1011	-22.0928	163.4	42.3943	-46.5014	162.916	42.5296	-72.9097	169.517	9.0516	-27.6526	153.674	-19.9662	-17.534	152.796	-10.7236	21.6718	185.04	-8.50156	-15.0955	162.034	-29.8188	4.49061	161.361	-16.7115	32.8984	202.183	-20.0381	-2.02839	177.841	-31.2879	13.6458	174.064	-8.41105	36.354	210.259	30.5484	30.719	215.54	32.4473	62.1955	181.418	48.2419	45.4174	
38	0.316667	149.905	42.6127	67.3274	124.015	44.1799	52.2309	103.342	55.6274	35.1869	86.5778	60.6027	32.6866	165.481	44.1612	-25.6579	164.576	43.7297	-49.2885	167.361	39.1133	-75.2205	172.802	7.35385	-26.2403	148.861	-16.777	-18.9443	146.859	-7.82363	21.6669	179.741	-11.7315	-15.0323	160.635	-31.1744	0.946808	158.007	-16.6197	32.7415	200.233	-21.207	-1.45133	176.701	-34.6611	10.4454	171.179	-12.8049	34.5144	210.62	24.7525	31.1632	214.272	28.963	62.9242	186.618	47.5046	46.6502	
39	0.325	149.959	46.5987	67.4444	127.192	49.557	47.6097	110.465	59.4216	32.3208	92.9012	67.8116	30.8181	166.53	44.457	-20.1465	166.602	43.5193	-46.4074	168.771	38.9045	-73.6729	168.105	7.84082	-27.707	146.032	-17.9871	-16.0158	148.541	-8.46496	22.3701	179.247	-16.4418	-14.3031	155.218	-30.1039	2.84282	156.87	-15.829	34.5031	194.765	-23.0282	-2.2808	170.694	-34.7571	12.5652	171.093	-12.9548	37.8684	214.004	19.0011	30.2728	217.586	21.5177	66.397	188.353	46.3839	46.737	
40	0.333333	154.143	47.9121	64.1615	131.482	51.5703	49.5256	114.603	65.3248	34.9017	100.194	76.6613	28.2108	170.38	43.1158	-21.7845	171.909	37.6207	-47.1563	173.606	32.7224	-76.4544	171.444	3.81214	-25.8905	144.732	-16.0897	-18.5235	145.064	-9.68048	22.4912	180.416	-17.7137	-11.4621	152.094	-30.8962	3.97245	154.494	-21.0039	35.6481	193.096	-31.4038	0.301746	166.749	-38.1721	15.5769	167.687	-17.8149	41.0498	212.137	15.357	30.1242	218.466	18.3138	65.7299	191.993	39.5705	47.6006	
41	0.341667	158.256	47.2451	64.8752	134.837	56.0024	52.5871	120.967	69.9781	32.681	105.295	85.841	27.6206	172.086	41.7899	-22.5082	172.929	35.6947	-48.0644	173.08	30.9887	-72.2909	166.539	2.42408	-26.6124	142.196	-18.423	-15.2827	144.689	-10.3489	24.4592	173.571	-21.5433	-11.0115	147.503	-30.361	3.72334	152.67	-18.7919	39.1334	190.001	-33.9244	2.78487	160.663	-35.1731	17.6447	163.226	-19.8846	42.3627	213.867	10.1979	32.9814	215.926	11.7864	64.247	191.865	39.8234	48.9424	
42	0.35	162.128	47.2664	63.8101	139.581	57.1559	51.3193	125.99	75.6983	32.8428	113.632	92.6798	28.188	176.335	34.924	-24.9044	175.223	30.5052	-45.8765	175.04	24.7106	-71.4408	167.027	-1.95141	-25.1389	140.262	-17.7543	-16.6903	138.398	-10.1532	24.0596	170.07	-19.4925	-8.96632	142.163	-29.6641	7.73722	144	-17.3354	37.2051	184.048	-38.2366	4.86993	155.62	-39.9884	17.1395	158.703	-18.1573	44.5906	212.47	4.86422	34.4604	216.241	6.2099	65.6709	194.223	36.087	46.2521	
43	0.358333	163.641	50.0317	64.521	143.978	57.7172	48.5883	132.951	75.7252	32.6766	123.22	91.4553	27.5251	178.242	31.9732	-20.161	175.017	30.1624	-50.1089	174.563	22.9884	-71.0816	167.667	0.3477	-21.1304	133.581	-11.6472	-16.088	131.541	-7.15499	22.0243	168.013	-21.6414	-8.66844	136.119	-26.4431	9.58234	141.969	-18.7163	39.4434	175.862	-41.1349	5.30146	149.375	-35.8851	18.074	153.98	-17.9259	44.4765	209.919	-0.0630533	35.7782	215.087	2.59296	67.0255	197.704	29.7693	50.5839	
44	0.366667	167.922	45.5768	60.4962	148.923	57.7082	47.3368	139.746	76.0243	30.5026	132.221	94.3674	25.6323	179.307	30.3792	-25.6653	175.275	27.1355	-46.6979	175.414	15.2761	-72.4927	162.831	-0.979472	-22.6062	130.647	-11.7741	-14.6089	128.643	-3.48884	23.4122	159.095	-24.2034	-7.88633	129.798	-23.1419	9.64012	137.026	-14.8234	39.2567	168.309	-38.092	7.07748	141.865	-34.8217	20.9663	149.22	-14.0872	42.2978	208.541	-7.15542	32.2299	211.318	-4.66603	71.2979	198.71	27.7333	50.688	
45	0.375	172.545	45.647	60.6959	154.958	61.7062	43.887	149.085	81.5279	28.0479	144.29	99.7434	24.5951	181.477	24.7561	-21.0864	174.851	24.1675	-47.0702	172.559	14.7179	-74.2605	161.418	-0.635205	-22.4994	127.754	-4.13926	-18.1684	125.261	0.683909	22.9895	157.808	-21.9247	-6.819	124.715	-18.5243	8.64644	130.94	-8.78477	39.2509	157.705	-42.3674	7.79484	135.551	-31.2409	17.7639	140.585	-14.2382	47.4161	202.552	-11.5697	35.5371	210.259	-12.8849	72.5658	200.378	24.9768	47.3274	
46	0.383333	177.415	48.7311	60.336	161.952	62.2401	44.1967	157.593	84.6771	25.2888	154.477	97.7659	23.6152	180.16	24.9263	-22.5059	174.505	18.0205	-46.7958	169.974	9.21015	-74.7052	158.241	-2.48838	-20.9501	122.963	1.02962	-15.8262	122.429	6.82513	22.7593	151.109	-21.1318	-6.49484	118.866	-12.2143	8.28294	126.953	-2.63277	39.2216	146.52	-42.1372	9.58501	124.505	-26.2426	25.155	137.092	-7.938	45.1943	195.754	-22.3032	33.8447	204.736	-18.6616	68.7228	201.386	15.5315	48.0294	
47	0.391667	183.281	42.2976	62.5864	170.772	65.1617	44.6969	169.057	84.1297	28.106	167.942	98.6909	19.2537	180.283	21.2699	-21.5671	173.252	12.3599	-47.7884	167.333	10.2885	-71.5948	151.725	-5.34787	-20.9367	117.91	5.96937	-12.3331	121.593	15.7218	25.587	143.599	-21.8049	-4.84554	112.652	-8.56025	11.8211	123.428	1.90663	39.104	138.209	-38.0901	12.1513	120.35	-18.5777	22.7716	132.585	-2.35442	46.1468	191.154	-27.4715	37.6293	199.777	-21.3324	72.8837	201.285	10.7352	51.0864	
48	0.4	188.235	41.5184	61.2222	178.921	63.6158	46.2536	178.859	82.3895	25.1535	179.403	96.5367	22.1533	178.092	13.5959	-26.6601	172.83	14.1899	-45.834	163.617	4.66129	-69.4294	146.737	-4.96605	-20.2337	116.963	11.1263	-13.5478	120.665	20.2848	25.4388	135.999	-17.5344	-4.96323	109.801	-2.53995	9.53909	125.142	5.17164	43.9551	131.038	-36.0309	14.7666	110.319	-16.0495	26.7835	128.927	0.710584	47.4923	183.181	-30.8613	39.9265	193.478	-28.9879	70.6864	200.082	4.71403	49.2173	
49	0.408333	191.072	35.2831	59.2456	186.64	60.5999	40.5374	188.548	78.8175	27.1347	192.563	94.5055	18.5152	175.547	10.6871	-22.3413	167.466	8.61421	-50.1853	159.153	3.01811	-73.8194	147.28	-1.27295	-18.1982	112.394	14.2715	-8.96608	120.298	23.5354	25.3583	126.915	-16.8305	-1.89846	107.715	6.21462	11.3589	124.369	10.9521	44.6267	125.432	-30.203	15.6472	106.49	-9.44642	29.2062	125.186	5.74217	49.5874	176.155	-33.4478	37.7859	186.612	-29.3425	70.5429	198.584	-1.47188	48.9667	
50	0.416667	196.728	33.6782	58.1703	196.363	57.8661	44.7016	200.067	73.1185	27.7088	208.683	89.4369	18.1868	175.714	9.63024	-24.2434	167.52	8.30282	-47.8332	157.597	3.13203	-69.7853	139.727	2.15347	-19.7775	115.405	21.9656	-11.3053	121.101	25.3632	28.5206	122.026	-12.9513	-0.202362	105.35	11.397	14.5075	123.798	13.8058	46.5389	117.226	-24.1387	17.8027	107.19	0.949709	28.6351	123.629	7.69709	54.6653	170.523	-32.676	35.3253	182.489	-33.6006	69.5801	194.403	-6.56788	50.1874	
51	0.425	201.165	28.8585	63.1146	203.173	49.9655	42.9379	208.286	65.7313	27.3019	219.605	81.2098	17.2995	173.367	6.31953	-19.9136	163.717	6.36158	-42.9875	155.948	4.79556	-69.5569	140.37	1.47379	-15.706	115.23	26.0781	-9.83046	126.397	34.3199	30.0995	119.116	-10.0727	2.30922	107.058	20.9251	18.4599	124.484	18.2682	48.2148	112.236	-18.5851	18.4781	101.816	3.29251	31.3545	127.26	12.5595	56.049	165.139	-34.4868	36.3083	175.231	-38.7016	72.4156	194.529	-9.58403	49.0624	
52	0.433333	203.113	21.8372	62.8742	209.412	44.6531	46.7074	215.525	58.1217	26.6841	229.083	72.1281	21.2525	170.884	5.07949	-22.5037	165.206	7.05871	-46.3281	151.581	1.22639	-70.8898	136.363	4.15599	-16.4841	118.07	31.4253	-8.29278	125.628	33.9032	31.7677	118.405	-2.04916	1.611	107.239	23.4405	19.0587	125.234	21.8439	49.5592	111.249	-15.9901	18.6413	104.133	9.99694	30.7419	125.787	15.8967	54.3113	159.814	-37.6749	38.5175	173.508	-37.5389	74.8192	189.524	-14.3522	50.0605	
53	0.441667	203.076	15.4095	65.7979	214.439	36.9878	50.0162	222.172	49.9132	31.8404	238.135	62.3429	20.5724	172.76	3.05134	-17.8397	163.658	3.40829	-40.2179	151.993	1.47318	-64.7063	140.34	6.07829	-14.9145	117.525	34.8225	-4.01381	125.986	36.0157	32.7022	115.727	-0.2405	2.53723	106.515	25.5512	19.3865	127.868	26.5531	48.9768	107.876	-15.2733	19.6962	100.125	11.2792	31.312	124.848	19.1459	52.8046	157.07	-39.2811	41.3121	168.734	-41.6624	74.0073	190.79	-17.85	50.123	
